<svg width="24" height="24" viewBox="0 0 24 24" fill="none" xmlns="http://www.w3.org/2000/svg">
<path d="M7.00003 23.9999C6.80228 23.9999 6.60898 23.9412 6.44457 23.8313C6.28016 23.7214 6.15202 23.5653 6.07635 23.3826C6.00068 23.1999 5.98088 22.9988 6.01945 22.8049C6.05802 22.6109 6.15322 22.4328 6.29303 22.2929L14.465 14.1209C15.0274 13.5583 15.3434 12.7954 15.3434 11.9999C15.3434 11.2044 15.0274 10.4415 14.465 9.87892L6.29303 1.70692C6.11087 1.51832 6.01008 1.26571 6.01236 1.00352C6.01464 0.741321 6.1198 0.490508 6.30521 0.3051C6.49062 0.119692 6.74143 0.0145233 7.00363 0.0122448C7.26583 0.00996641 7.51843 0.110761 7.70703 0.292919L15.879 8.46492C16.8152 9.40321 17.3409 10.6745 17.3409 11.9999C17.3409 13.3253 16.8152 14.5966 15.879 15.5349L7.70703 23.7069C7.51954 23.8945 7.26523 23.9999 7.00003 23.9999Z" fill="white"/>
</svg>
