<svg width="24" height="24" viewBox="0 0 24 24" fill="none" xmlns="http://www.w3.org/2000/svg">
<path d="M17.172 23.9999C16.9068 23.9999 16.6525 23.8945 16.465 23.7069L8.29303 15.5349C7.35568 14.5973 6.8291 13.3257 6.8291 11.9999C6.8291 10.6741 7.35568 9.40256 8.29303 8.46492L16.465 0.292919C16.6536 0.110761 16.9062 0.00996641 17.1684 0.0122448C17.4306 0.0145233 17.6814 0.119692 17.8669 0.3051C18.0523 0.490508 18.1574 0.741321 18.1597 1.00352C18.162 1.26571 18.0612 1.51832 17.879 1.70692L9.70703 9.87892C9.14462 10.4415 8.82867 11.2044 8.82867 11.9999C8.82867 12.7954 9.14462 13.5583 9.70703 14.1209L17.879 22.2929C18.0188 22.4328 18.1141 22.6109 18.1526 22.8049C18.1912 22.9988 18.1714 23.1999 18.0957 23.3826C18.02 23.5653 17.8919 23.7214 17.7275 23.8313C17.5631 23.9412 17.3698 23.9999 17.172 23.9999Z" fill="white"/>
</svg>
